<svg width="571" height="280" viewBox="0 0 571 280" fill="none" xmlns="http://www.w3.org/2000/svg">
<path d="M289.371 141.468V48.5962H332.456C338.565 48.5962 344.082 49.8787 349.006 52.4437C354.021 55.0088 357.942 58.5467 360.769 63.0576C363.595 67.4801 365.009 72.5217 365.009 78.1824C365.009 84.0201 363.595 89.2828 360.769 93.9706C357.942 98.5699 354.067 102.196 349.143 104.85C344.219 107.503 338.656 108.83 332.456 108.83H311.529V141.468H289.371ZM342.441 141.468L318.094 99.5429L341.893 96.226L368.975 141.468H342.441ZM311.529 91.5825H330.404C332.775 91.5825 334.827 91.096 336.559 90.123C338.383 89.0617 339.751 87.6022 340.662 85.7448C341.665 83.8874 342.167 81.7646 342.167 79.3765C342.167 76.9884 341.62 74.9098 340.526 73.1408C339.431 71.2834 337.836 69.8682 335.738 68.8953C333.732 67.9223 331.27 67.4359 328.353 67.4359H311.529V91.5825Z" fill="white"/>
<path d="M432.66 141.468C426.155 141.468 420.158 140.313 414.667 138.004C409.176 135.695 404.361 132.488 400.222 128.384C396.167 124.193 393.042 119.276 390.845 113.632C388.649 107.902 387.551 101.702 387.551 95.032C387.551 88.2761 388.649 82.1189 390.845 76.5603C393.042 70.9161 396.167 65.9989 400.222 61.8086C404.361 57.6182 409.176 54.3686 414.667 52.0596C420.158 49.7507 426.155 48.5962 432.66 48.5962C439.249 48.5962 445.246 49.7507 450.653 52.0596C456.144 54.3686 460.916 57.6182 464.971 61.8086C469.11 65.9989 472.278 70.9161 474.474 76.5603C476.671 82.2044 477.769 88.3616 477.769 95.032C477.769 101.702 476.671 107.86 474.474 113.504C472.278 119.148 469.11 124.065 464.971 128.255C460.916 132.446 456.144 135.695 450.653 138.004C445.246 140.313 439.249 141.468 432.66 141.468ZM432.66 123.253C436.377 123.253 439.798 122.568 442.923 121.2C446.133 119.832 448.879 117.865 451.16 115.3C453.44 112.734 455.214 109.741 456.481 106.32C457.833 102.9 458.509 99.1368 458.509 95.032C458.509 90.9271 457.833 87.1644 456.481 83.7437C455.214 80.323 453.44 77.3727 451.16 74.8927C448.879 72.3272 446.133 70.3603 442.923 68.992C439.798 67.5382 436.377 66.8113 432.66 66.8113C428.943 66.8113 425.522 67.5382 422.396 68.992C419.271 70.3603 416.525 72.3272 414.16 74.8927C411.795 77.3727 409.979 80.323 408.711 83.7437C407.529 87.1644 406.938 90.9271 406.938 95.032C406.938 99.1368 407.529 102.9 408.711 106.32C409.979 109.741 411.795 112.734 414.16 115.3C416.525 117.865 419.271 119.832 422.396 121.2C425.522 122.568 428.943 123.253 432.66 123.253Z" fill="white"/>
<path d="M535.683 141.467C530.032 141.467 524.858 140.763 520.163 139.356C515.555 137.948 511.424 135.881 507.773 133.155C504.208 130.428 500.99 127.129 498.121 123.259L510.381 109.141C514.642 115.123 518.859 119.213 523.032 121.412C527.293 123.523 531.901 124.578 536.857 124.578C539.553 124.578 541.944 124.227 544.031 123.523C546.204 122.731 547.9 121.632 549.117 120.224C550.335 118.817 550.943 117.146 550.943 115.211C550.943 113.803 550.639 112.528 550.03 111.384C549.422 110.153 548.552 109.097 547.422 108.218C546.291 107.25 544.944 106.415 543.379 105.711C541.813 104.919 540.074 104.26 538.162 103.732C536.249 103.116 534.162 102.632 531.901 102.281C527.032 101.137 522.771 99.7737 519.12 98.1904C515.468 96.5191 512.424 94.496 509.99 92.1211C507.555 89.6582 505.729 86.8875 504.512 83.8088C503.382 80.7302 502.816 77.2558 502.816 73.3855C502.816 69.4273 503.686 65.777 505.425 62.4345C507.164 59.004 509.555 56.0573 512.598 53.5945C515.728 51.1316 519.293 49.2404 523.293 47.921C527.38 46.6016 531.684 45.9419 536.205 45.9419C541.77 45.9419 546.639 46.6016 550.813 47.921C554.986 49.1524 558.595 50.9556 561.638 53.3306C564.768 55.7055 567.377 58.6082 569.464 62.0387L557.073 74.1772C555.247 71.7143 553.247 69.6472 551.074 67.976C548.987 66.3047 546.683 65.0733 544.161 64.2816C541.727 63.402 539.205 62.9622 536.596 62.9622C533.727 62.9622 531.249 63.3581 529.162 64.1497C527.075 64.8534 525.423 65.9089 524.206 67.3163C523.076 68.7236 522.511 70.4389 522.511 72.462C522.511 74.0452 522.902 75.4526 523.684 76.6841C524.467 77.9155 525.597 79.015 527.075 79.9826C528.554 80.8622 530.336 81.6538 532.423 82.3575C534.51 83.0612 536.814 83.6769 539.335 84.2047C544.118 85.1722 548.422 86.4477 552.247 88.031C556.073 89.6142 559.334 91.5494 562.029 93.8363C564.812 96.0353 566.942 98.6742 568.42 101.753C569.898 104.743 570.637 108.13 570.637 111.912C570.637 118.157 569.159 123.479 566.203 127.877C563.247 132.275 559.16 135.662 553.943 138.036C548.726 140.323 542.64 141.467 535.683 141.467Z" fill="white"/>
<path d="M108.935 139.245L148.755 139.245L182.346 107.705L182.346 221.07L206.545 221.07L207.113 48.5946L162.597 90.645L108.935 139.245Z" fill="white"/>
<path d="M85.0288 125.797L78.9949 118.88L71.6508 110.46L40.2059 74.4097L23.3125 89.145L67.6952 139.727L97.1791 139.727L90.2006 131.727L85.0288 125.797Z" fill="white"/>
<path d="M98.7324 48.5945L62.8393 48.5945L21.9315 84.63L21.9315 0.832033L0.640375 0.832031L0.140613 135.125L39.307 97.8044L98.7324 48.5945Z" fill="white"/>
<path d="M484.401 0.82959L458.924 0.829613L445.926 13.3711L445.926 21.0889L445.926 27.842L445.926 37.0417L484.401 0.82959Z" fill="white"/>
<path d="M260.178 121.661V111.826V99.8543V48.5962H236.845L236.297 141.468H260.178V130.092V121.661Z" fill="white"/>
<path d="M103.662 137.486L167.32 77.7832C167.32 77.7832 136.982 105.178 103.662 87.0704C70.3421 68.9632 58.5273 87.0705 58.5273 87.0705L103.662 137.486Z" fill="url(#paint0_linear_2044_579)"/>
<path d="M103.633 279.448L103.633 133.507" stroke="url(#paint1_linear_2044_579)"/>
<path d="M334.84 166.349C338.222 166.349 341.129 166.734 343.562 167.506C346.024 168.277 347.953 169.093 349.347 169.953C350.771 170.813 351.616 171.377 351.883 171.644L347.967 177.919C347.522 177.533 346.736 176.984 345.609 176.272C344.482 175.53 343.072 174.878 341.381 174.314C339.69 173.721 337.762 173.424 335.596 173.424C332.244 173.424 329.589 174.106 327.631 175.471C325.703 176.806 324.738 178.705 324.738 181.167C324.738 182.828 325.243 184.297 326.251 185.573C327.29 186.819 328.743 187.961 330.612 188.999C332.481 190.037 334.662 191.105 337.154 192.203C339.201 193.063 341.203 194.042 343.161 195.14C345.149 196.238 346.944 197.528 348.546 199.012C350.178 200.495 351.468 202.216 352.417 204.174C353.396 206.132 353.886 208.386 353.886 210.938C353.886 213.459 353.367 215.729 352.328 217.746C351.32 219.763 349.881 221.484 348.012 222.908C346.173 224.302 344.022 225.37 341.559 226.112C339.097 226.854 336.442 227.225 333.594 227.225C330.004 227.225 326.756 226.78 323.848 225.89C320.971 225 318.642 224.065 316.862 223.086C315.112 222.107 314.103 221.499 313.836 221.262L317.974 214.72C318.33 215.017 318.983 215.462 319.932 216.055C320.882 216.619 322.054 217.212 323.448 217.835C324.842 218.458 326.415 218.992 328.165 219.437C329.915 219.852 331.784 220.06 333.772 220.06C337.747 220.06 340.758 219.17 342.805 217.39C344.852 215.61 345.876 213.326 345.876 210.537C345.876 208.401 345.223 206.562 343.918 205.019C342.613 203.476 340.877 202.097 338.711 200.881C336.546 199.664 334.158 198.492 331.547 197.365C328.877 196.149 326.429 194.814 324.204 193.36C321.979 191.906 320.185 190.171 318.82 188.154C317.485 186.107 316.817 183.644 316.817 180.767C316.817 177.919 317.618 175.412 319.22 173.246C320.852 171.08 323.033 169.389 325.762 168.173C328.521 166.957 331.547 166.349 334.84 166.349Z" fill="white"/>
<path d="M371.18 244.669H363.482V189.622H371.314V196.475C371.581 195.555 372.323 194.473 373.539 193.227C374.755 191.981 376.387 190.898 378.434 189.978C380.511 189.029 382.884 188.554 385.554 188.554C388.936 188.554 391.932 189.37 394.543 191.002C397.183 192.604 399.245 194.858 400.728 197.766C402.241 200.643 402.998 204.025 402.998 207.912C402.998 211.798 402.227 215.195 400.684 218.102C399.141 220.98 397.035 223.22 394.365 224.822C391.725 226.424 388.699 227.225 385.287 227.225C382.528 227.225 380.11 226.705 378.033 225.667C375.986 224.629 374.37 223.457 373.183 222.152C372.026 220.846 371.358 219.808 371.18 219.037V244.669ZM395.344 207.912C395.344 205.271 394.795 202.987 393.697 201.059C392.629 199.13 391.205 197.632 389.425 196.564C387.645 195.496 385.717 194.962 383.64 194.962C381.356 194.962 379.279 195.511 377.41 196.609C375.541 197.677 374.058 199.19 372.96 201.148C371.863 203.076 371.314 205.331 371.314 207.912C371.314 210.493 371.863 212.762 372.96 214.72C374.058 216.648 375.541 218.147 377.41 219.215C379.279 220.283 381.356 220.817 383.64 220.817C385.717 220.817 387.645 220.297 389.425 219.259C391.205 218.191 392.629 216.693 393.697 214.765C394.795 212.836 395.344 210.552 395.344 207.912Z" fill="white"/>
<path d="M440.434 226.157V219.037C440.197 219.778 439.5 220.802 438.343 222.107C437.215 223.412 435.658 224.599 433.67 225.667C431.712 226.705 429.398 227.225 426.728 227.225C423.346 227.225 420.276 226.424 417.517 224.822C414.787 223.22 412.607 220.98 410.975 218.102C409.373 215.195 408.572 211.798 408.572 207.912C408.572 204.025 409.373 200.643 410.975 197.766C412.607 194.858 414.787 192.604 417.517 191.002C420.276 189.37 423.346 188.554 426.728 188.554C429.369 188.554 431.653 189.029 433.581 189.978C435.539 190.927 437.097 192.025 438.254 193.271C439.44 194.517 440.138 195.585 440.345 196.475V189.622H447.999V226.157H440.434ZM416.226 207.912C416.226 210.552 416.805 212.836 417.962 214.765C419.119 216.693 420.617 218.191 422.456 219.259C424.325 220.297 426.313 220.817 428.419 220.817C430.674 220.817 432.691 220.283 434.471 219.215C436.251 218.147 437.66 216.648 438.699 214.72C439.737 212.762 440.256 210.493 440.256 207.912C440.256 205.331 439.737 203.076 438.699 201.148C437.66 199.19 436.251 197.677 434.471 196.609C432.691 195.511 430.674 194.962 428.419 194.962C426.313 194.962 424.325 195.496 422.456 196.564C420.617 197.632 419.119 199.13 417.962 201.059C416.805 202.987 416.226 205.271 416.226 207.912Z" fill="white"/>
<defs>
<linearGradient id="paint0_linear_2044_579" x1="57.5201" y1="81.0575" x2="161.918" y2="84.9153" gradientUnits="userSpaceOnUse">
<stop stop-color="#B4864F"/>
<stop offset="1" stop-color="#E2CF83"/>
</linearGradient>
<linearGradient id="paint1_linear_2044_579" x1="103.688" y1="280.799" x2="150.116" y2="264.104" gradientUnits="userSpaceOnUse">
<stop stop-color="#171717" stop-opacity="0"/>
<stop offset="0.630208" stop-color="#C9A867"/>
<stop offset="1" stop-color="#C9A867"/>
</linearGradient>
</defs>
</svg>
