<svg width="571" height="280" viewBox="0 0 571 280" fill="none" xmlns="http://www.w3.org/2000/svg">
<path d="M289.676 141.454V48.5825H332.761C338.87 48.5825 344.387 49.865 349.311 52.4301C354.326 54.9951 358.247 58.533 361.073 63.044C363.9 67.4664 365.313 72.508 365.313 78.1687C365.313 84.0064 363.9 89.2691 361.073 93.9569C358.247 98.5563 354.371 102.183 349.447 104.836C344.523 107.49 338.961 108.816 332.761 108.816H311.834V141.454H289.676ZM342.745 141.454L318.399 99.5292L342.198 96.2124L369.28 141.454H342.745ZM311.834 91.5688H330.709C333.08 91.5688 335.131 91.0823 336.864 90.1094C338.688 89.048 340.055 87.5886 340.967 85.7311C341.97 83.8737 342.472 81.7509 342.472 79.3628C342.472 76.9747 341.925 74.8961 340.83 73.1271C339.736 71.2697 338.14 69.8545 336.043 68.8816C334.037 67.9086 331.575 67.4222 328.657 67.4222H311.834V91.5688Z" fill="black"/>
<path d="M432.965 141.454C426.46 141.454 420.462 140.3 414.972 137.991C409.481 135.682 404.666 132.475 400.527 128.37C396.472 124.18 393.346 119.262 391.15 113.618C388.954 107.889 387.855 101.689 387.855 95.0183C387.855 88.2624 388.954 82.1052 391.15 76.5466C393.346 70.9025 396.472 65.9852 400.527 61.7949C404.666 57.6046 409.481 54.3549 414.972 52.046C420.462 49.737 426.46 48.5825 432.965 48.5825C439.553 48.5825 445.551 49.737 450.957 52.046C456.448 54.3549 461.221 57.6046 465.276 61.7949C469.415 65.9852 472.583 70.9025 474.779 76.5466C476.975 82.1907 478.074 88.348 478.074 95.0183C478.074 101.689 476.975 107.846 474.779 113.49C472.583 119.134 469.415 124.051 465.276 128.242C461.221 132.432 456.448 135.682 450.957 137.991C445.551 140.3 439.553 141.454 432.965 141.454ZM432.965 123.239C436.681 123.239 440.103 122.555 443.228 121.187C446.438 119.818 449.183 117.851 451.464 115.286C453.745 112.72 455.519 109.727 456.786 106.307C458.138 102.886 458.813 99.1231 458.813 95.0183C458.813 90.9135 458.138 87.1507 456.786 83.73C455.519 80.3094 453.745 77.359 451.464 74.879C449.183 72.3135 446.438 70.3466 443.228 68.9783C440.103 67.5246 436.681 66.7977 432.965 66.7977C429.248 66.7977 425.826 67.5246 422.701 68.9783C419.575 70.3466 416.83 72.3135 414.465 74.879C412.099 77.359 410.283 80.3094 409.016 83.73C407.834 87.1507 407.242 90.9135 407.242 95.0183C407.242 99.1231 407.834 102.886 409.016 106.307C410.283 109.727 412.099 112.72 414.465 115.286C416.83 117.851 419.575 119.818 422.701 121.187C425.826 122.555 429.248 123.239 432.965 123.239Z" fill="black"/>
<path d="M535.988 141.453C530.336 141.453 525.163 140.75 520.468 139.342C515.859 137.935 511.729 135.868 508.077 133.141C504.512 130.414 501.295 127.116 498.426 123.245L510.686 109.128C514.946 115.109 519.163 119.199 523.337 121.398C527.598 123.509 532.206 124.565 537.162 124.565C539.857 124.565 542.249 124.213 544.335 123.509C546.509 122.718 548.205 121.618 549.422 120.211C550.639 118.803 551.248 117.132 551.248 115.197C551.248 113.79 550.944 112.514 550.335 111.371C549.726 110.139 548.857 109.084 547.726 108.204C546.596 107.237 545.248 106.401 543.683 105.697C542.118 104.906 540.379 104.246 538.466 103.718C536.553 103.102 534.467 102.619 532.206 102.267C527.337 101.123 523.076 99.76 519.424 98.1767C515.772 96.5055 512.729 94.4824 510.294 92.1074C507.86 89.6445 506.034 86.8738 504.817 83.7952C503.686 80.7166 503.121 77.2421 503.121 73.3719C503.121 69.4137 503.991 65.7633 505.73 62.4208C507.469 58.9903 509.86 56.0437 512.903 53.5808C516.033 51.1179 519.598 49.2267 523.598 47.9073C527.684 46.5879 531.988 45.9282 536.51 45.9282C542.075 45.9282 546.944 46.5879 551.117 47.9073C555.291 49.1388 558.9 50.942 561.943 53.3169C565.073 55.6918 567.681 58.5945 569.768 62.025L557.378 74.1635C555.552 71.7006 553.552 69.6336 551.378 67.9623C549.292 66.2911 546.987 65.0596 544.466 64.268C542.031 63.3884 539.51 62.9486 536.901 62.9486C534.032 62.9486 531.554 63.3444 529.467 64.136C527.38 64.8397 525.728 65.8952 524.511 67.3026C523.38 68.71 522.815 70.4252 522.815 72.4483C522.815 74.0316 523.207 75.4389 523.989 76.6704C524.772 77.9018 525.902 79.0013 527.38 79.9689C528.858 80.8485 530.641 81.6402 532.728 82.3438C534.814 83.0475 537.119 83.6632 539.64 84.191C544.422 85.1586 548.726 86.434 552.552 88.0173C556.378 89.6006 559.639 91.5357 562.334 93.8227C565.116 96.0217 567.247 98.6605 568.725 101.739C570.203 104.73 570.942 108.116 570.942 111.899C570.942 118.144 569.464 123.465 566.508 127.863C563.551 132.261 559.465 135.648 554.248 138.023C549.031 140.31 542.944 141.453 535.988 141.453Z" fill="black"/>
<path d="M109.239 139.232L149.06 139.232L182.65 107.691L182.65 221.057L206.85 221.057L207.418 48.5809L162.901 90.6313L109.239 139.232Z" fill="black"/>
<path d="M85.3334 125.784L79.2996 118.866L71.9555 110.446L40.5106 74.3961L23.6172 89.1313L67.9999 139.713L97.4838 139.713L90.5053 131.713L85.3334 125.784Z" fill="black"/>
<path d="M99.0371 48.5809L63.144 48.5809L22.2362 84.6164L22.2362 0.818361L0.945063 0.818359L0.445301 135.111L39.6117 97.7908L99.0371 48.5809Z" fill="black"/>
<path d="M484.706 0.815918L459.229 0.815941L446.23 13.3574L446.23 21.0752L446.23 27.8283L446.23 37.028L484.706 0.815918Z" fill="black"/>
<path d="M260.483 121.648V111.812V99.8406V48.5825H237.149L236.602 141.454H260.483V130.078V121.648Z" fill="black"/>
<path d="M103.967 137.473L167.624 77.7695C167.624 77.7695 137.287 105.164 103.967 87.0567C70.6467 68.9495 58.832 87.0569 58.832 87.0569L103.967 137.473Z" fill="url(#paint0_linear_2044_597)"/>
<path d="M103.938 279.434L103.938 133.493" stroke="url(#paint1_linear_2044_597)"/>
<path d="M335.145 166.335C338.527 166.335 341.434 166.721 343.867 167.492C346.329 168.263 348.257 169.079 349.652 169.939C351.076 170.8 351.921 171.363 352.188 171.63L348.272 177.905C347.827 177.519 347.041 176.97 345.914 176.258C344.786 175.517 343.377 174.864 341.686 174.3C339.995 173.707 338.067 173.41 335.901 173.41C332.549 173.41 329.894 174.093 327.936 175.457C326.007 176.792 325.043 178.691 325.043 181.153C325.043 182.815 325.547 184.283 326.556 185.559C327.594 186.805 329.048 187.947 330.917 188.985C332.786 190.024 334.967 191.092 337.459 192.189C339.506 193.05 341.508 194.029 343.466 195.126C345.454 196.224 347.249 197.515 348.851 198.998C350.482 200.481 351.773 202.202 352.722 204.16C353.701 206.118 354.191 208.373 354.191 210.924C354.191 213.446 353.671 215.715 352.633 217.732C351.624 219.75 350.186 221.47 348.317 222.894C346.477 224.289 344.326 225.357 341.864 226.098C339.402 226.84 336.747 227.211 333.899 227.211C330.309 227.211 327.06 226.766 324.153 225.876C321.275 224.986 318.947 224.051 317.167 223.072C315.416 222.093 314.408 221.485 314.141 221.248L318.279 214.706C318.635 215.003 319.288 215.448 320.237 216.041C321.186 216.605 322.358 217.198 323.753 217.821C325.147 218.444 326.719 218.978 328.47 219.423C330.22 219.839 332.089 220.046 334.077 220.046C338.052 220.046 341.063 219.156 343.11 217.376C345.157 215.596 346.181 213.312 346.181 210.523C346.181 208.387 345.528 206.548 344.223 205.005C342.917 203.463 341.182 202.083 339.016 200.867C336.85 199.651 334.462 198.479 331.852 197.351C329.182 196.135 326.734 194.8 324.509 193.346C322.284 191.893 320.489 190.157 319.125 188.14C317.79 186.093 317.122 183.631 317.122 180.753C317.122 177.905 317.923 175.398 319.525 173.232C321.157 171.067 323.337 169.376 326.067 168.159C328.826 166.943 331.852 166.335 335.145 166.335Z" fill="black"/>
<path d="M371.485 244.655H363.787V189.608H371.619V196.461C371.886 195.542 372.627 194.459 373.844 193.213C375.06 191.967 376.692 190.884 378.739 189.964C380.815 189.015 383.189 188.54 385.859 188.54C389.241 188.54 392.237 189.356 394.848 190.988C397.488 192.59 399.55 194.845 401.033 197.752C402.546 200.63 403.303 204.012 403.303 207.898C403.303 211.784 402.531 215.181 400.989 218.088C399.446 220.966 397.34 223.206 394.67 224.808C392.029 226.41 389.003 227.211 385.592 227.211C382.833 227.211 380.415 226.692 378.338 225.653C376.291 224.615 374.674 223.443 373.488 222.138C372.331 220.833 371.663 219.794 371.485 219.023V244.655ZM395.649 207.898C395.649 205.258 395.1 202.973 394.002 201.045C392.934 199.117 391.51 197.618 389.73 196.55C387.95 195.482 386.022 194.948 383.945 194.948C381.661 194.948 379.584 195.497 377.715 196.595C375.846 197.663 374.363 199.176 373.265 201.134C372.167 203.062 371.619 205.317 371.619 207.898C371.619 210.479 372.167 212.748 373.265 214.706C374.363 216.635 375.846 218.133 377.715 219.201C379.584 220.269 381.661 220.803 383.945 220.803C386.022 220.803 387.95 220.284 389.73 219.245C391.51 218.177 392.934 216.679 394.002 214.751C395.1 212.823 395.649 210.538 395.649 207.898Z" fill="black"/>
<path d="M440.739 226.143V219.023C440.502 219.765 439.804 220.788 438.647 222.093C437.52 223.399 435.963 224.585 433.975 225.653C432.017 226.692 429.703 227.211 427.033 227.211C423.651 227.211 420.58 226.41 417.821 224.808C415.092 223.206 412.912 220.966 411.28 218.088C409.678 215.181 408.877 211.784 408.877 207.898C408.877 204.012 409.678 200.63 411.28 197.752C412.912 194.845 415.092 192.59 417.821 190.988C420.58 189.356 423.651 188.54 427.033 188.54C429.673 188.54 431.958 189.015 433.886 189.964C435.844 190.914 437.401 192.011 438.558 193.257C439.745 194.503 440.442 195.571 440.65 196.461V189.608H448.304V226.143H440.739ZM416.531 207.898C416.531 210.538 417.109 212.823 418.266 214.751C419.423 216.679 420.922 218.177 422.761 219.245C424.63 220.284 426.618 220.803 428.724 220.803C430.979 220.803 432.996 220.269 434.776 219.201C436.556 218.133 437.965 216.635 439.003 214.706C440.042 212.748 440.561 210.479 440.561 207.898C440.561 205.317 440.042 203.062 439.003 201.134C437.965 199.176 436.556 197.663 434.776 196.595C432.996 195.497 430.979 194.948 428.724 194.948C426.618 194.948 424.63 195.482 422.761 196.55C420.922 197.618 419.423 199.117 418.266 201.045C417.109 202.973 416.531 205.258 416.531 207.898Z" fill="black"/>
<defs>
<linearGradient id="paint0_linear_2044_597" x1="57.8248" y1="81.0438" x2="162.223" y2="84.9016" gradientUnits="userSpaceOnUse">
<stop stop-color="#B4864F"/>
<stop offset="1" stop-color="#E2CF83"/>
</linearGradient>
<linearGradient id="paint1_linear_2044_597" x1="103.992" y1="280.785" x2="150.421" y2="264.09" gradientUnits="userSpaceOnUse">
<stop stop-color="#171717" stop-opacity="0"/>
<stop offset="0.630208" stop-color="#C9A867"/>
<stop offset="1" stop-color="#C9A867"/>
</linearGradient>
</defs>
</svg>
